<svg viewBox="-0.5 0 21 21" version="1.1" xmlns="http://www.w3.org/2000/svg" xmlns:xlink="http://www.w3.org/1999/xlink" fill="#000000"><g id="SVGRepo_bgCarrier" stroke-width="0"></g><g id="SVGRepo_tracerCarrier" stroke-linecap="round" stroke-linejoin="round"></g><g id="SVGRepo_iconCarrier"> <title>diamond_round [#880]</title> <desc>Created with Sketch.</desc> <defs> </defs> <g id="Page-1" stroke="none" stroke-width="1" fill="none" fill-rule="evenodd"> <g id="Dribbble-Light-Preview" transform="translate(-60.000000, -4318.000000)" fill="#000000"> <g id="icons" transform="translate(56.000000, 160.000000)"> <path d="M13.3238354,4176.17833 L6.72208706,4169.57941 C6.33357313,4169.19089 6.33357313,4168.56128 6.72208706,4168.17275 L13.321843,4161.57283 C13.7103569,4161.18431 14.3399487,4161.18431 14.7284627,4161.57283 L21.330211,4168.17176 C21.7187249,4168.55929 21.7187249,4169.18989 21.330211,4169.57742 L14.7304551,4176.17833 C14.3419411,4176.56686 13.7123493,4176.56686 13.3238354,4176.17833 M23.416232,4167.51625 L15.407864,4159.50768 C15.01935,4159.11816 14.509301,4158.9239 14.0002481,4158.9239 C13.490199,4158.9239 12.98015,4159.11816 12.591636,4159.50768 L4.58326804,4167.51625 C3.80524399,4168.2933 3.80524399,4169.5545 4.58326804,4170.33255 L12.591636,4178.34111 C12.98015,4178.72964 13.490199,4178.9239 14.0002481,4178.9239 C14.509301,4178.9239 15.01935,4178.72964 15.407864,4178.34111 L23.416232,4170.33255 C24.194256,4169.5545 24.194256,4168.2933 23.416232,4167.51625" id="diamond_round-[#880]"> </path> </g> </g> </g> </g></svg>