<svg xmlns="http://www.w3.org/2000/svg" xmlns:xlink="http://www.w3.org/1999/xlink" aria-hidden="true" role="img"
  class="iconify iconify--carbon" width="32" height="32" preserveAspectRatio="xMidYMid meet" viewBox="0 0 32 32">
  <style>
    .a {
      fill: #333;
    }

    @media (prefers-color-scheme: dark) {
      .a {
        fill: #eee;
      }
    }
  </style>
  <circle class="a" cx="11" cy="15.5" r="1.5"></circle>
  <path class="a"
    d="M12 12h-2V8h2a2 2 0 0 0 0-4h-2a2.002 2.002 0 0 0-2 2v.5H6V6a4.005 4.005 0 0 1 4-4h2a4 4 0 0 1 0 8z"></path>
  <path class="a"
    d="M22.448 21.034a10.971 10.971 0 0 0-2.527-16.29l-.999 1.73A8.997 8.997 0 1 1 5 14H3a10.992 10.992 0 0 0 18.034 8.448L28.586 30L30 28.586z">
  </path>
</svg>
